HIERARCHY
ROOT Hips
{
	OFFSET 0.000000 0.000000 0.000000
	CHANNELS 6 Xposition Yposition Zposition Xrotation Yrotation Zrotation
	JOINT LeftUpLeg_virtual
	{
		OFFSET 0.000000 0.000000 0.000000
		CHANNELS 3 Xrotation Yrotation Zrotation
		JOINT LeftUpLeg
		{
			OFFSET 15.427100 -6.655098 0.678600
			CHANNELS 3 Xrotation Yrotation Zrotation
			JOINT LeftLeg
			{
				OFFSET 4.081073 -39.591068 13.024000
				CHANNELS 3 Xrotation Yrotation Zrotation
				JOINT LeftFoot
				{
					OFFSET -4.081074 -37.707932 -15.979700
					CHANNELS 3 Xrotation Yrotation Zrotation
					JOINT LeftToeBase
					{
						OFFSET 5.346399 -15.068900 20.645000
						CHANNELS 3 Xrotation Yrotation Zrotation
						JOINT LeftToe_End
						{
							OFFSET 2.754700 0.931300 11.300900
							CHANNELS 3 Xrotation Yrotation Zrotation
							End Site
							{
								OFFSET 0 0 0
							}
						}
					}
				}
			}
		}
	}
	JOINT RightUpLeg_virtual
	{
		OFFSET 0.000000 0.000000 0.000000
		CHANNELS 3 Xrotation Yrotation Zrotation
		JOINT RightUpLeg
		{
			OFFSET -15.569500 -6.655098 0.678600
			CHANNELS 3 Xrotation Yrotation Zrotation
			JOINT RightLeg
			{
				OFFSET -4.081825 -39.591045 13.023800
				CHANNELS 3 Xrotation Yrotation Zrotation
				JOINT RightFoot
				{
					OFFSET 4.081824 -37.707954 -15.979600
					CHANNELS 3 Xrotation Yrotation Zrotation
					JOINT RightToeBase
					{
						OFFSET -5.346400 -15.068900 20.645000
						CHANNELS 3 Xrotation Yrotation Zrotation
						JOINT RightToe_End
						{
							OFFSET -2.754700 0.931300 11.300900
							CHANNELS 3 Xrotation Yrotation Zrotation
							End Site
							{
								OFFSET 0 0 0
							}
						}
					}
				}
			}
		}
	}
	JOINT Spine_virtual
	{
		OFFSET 0.000000 0.000000 0.000000
		CHANNELS 3 Xrotation Yrotation Zrotation
		JOINT Spine
		{
			OFFSET -0.279200 12.230698 -2.892100
			CHANNELS 3 Xrotation Yrotation Zrotation
			JOINT Spine1
			{
				OFFSET -0.232667 10.192268 -1.242267
				CHANNELS 3 Xrotation Yrotation Zrotation
				JOINT Spine1_split
				{
					OFFSET -0.232667 10.192268 -1.242267
					CHANNELS 3 Xrotation Yrotation Zrotation
					JOINT Spine2
					{
						OFFSET -0.232667 10.192268 -1.242267
						CHANNELS 3 Xrotation Yrotation Zrotation
						JOINT Neck_virtual
						{
							OFFSET 0.000000 0.000000 0.000000
							CHANNELS 3 Xrotation Yrotation Zrotation
							JOINT Neck
							{
								OFFSET -0.418800 17.814194 8.416900
								CHANNELS 3 Xrotation Yrotation Zrotation
								JOINT Head
								{
									OFFSET 0.000000 7.031097 3.806800
									CHANNELS 3 Xrotation Yrotation Zrotation
									JOINT HeadTop_End
									{
										OFFSET 0.000000 24.646606 12.978600
										CHANNELS 3 Xrotation Yrotation Zrotation
										End Site
										{
											OFFSET 0 0 0
										}
									}
								}
							}
						}
						JOINT LeftShoulder_virtual
						{
							OFFSET 0.000000 0.000000 0.000000
							CHANNELS 3 Xrotation Yrotation Zrotation
							JOINT LeftShoulder
							{
								OFFSET 8.476499 7.247704 -3.868750
								CHANNELS 3 Xrotation Yrotation Zrotation
								JOINT LeftShoulder_split
								{
									OFFSET 8.476499 7.247704 -3.868750
									CHANNELS 3 Xrotation Yrotation Zrotation
									JOINT LeftArm
									{
										OFFSET 9.308998 -2.777710 0.208600
										CHANNELS 3 Xrotation Yrotation Zrotation
										JOINT LeftForeArm
										{
											OFFSET 29.972298 0.000000 0.000000
											CHANNELS 3 Xrotation Yrotation Zrotation
											JOINT LeftHand
											{
												OFFSET 26.026505 0.000000 0.000000
												CHANNELS 3 Xrotation Yrotation Zrotation
												End Site
												{
													OFFSET 0 0 0
												}
											}
										}
									}
								}
							}
						}
						JOINT RightShoulder_virtual
						{
							OFFSET 0.000000 0.000000 0.000000
							CHANNELS 3 Xrotation Yrotation Zrotation
							JOINT RightShoulder
							{
								OFFSET -7.570500 7.247704 -3.868750
								CHANNELS 3 Xrotation Yrotation Zrotation
								JOINT RightShoulder_split
								{
									OFFSET -7.570500 7.247704 -3.868750
									CHANNELS 3 Xrotation Yrotation Zrotation
									JOINT RightArm
									{
										OFFSET -9.308998 -2.777710 0.208500
										CHANNELS 3 Xrotation Yrotation Zrotation
										JOINT RightForeArm
										{
											OFFSET -29.972300 0.000000 0.000000
											CHANNELS 3 Xrotation Yrotation Zrotation
											JOINT RightHand
											{
												OFFSET -26.026505 0.000000 0.000000
												CHANNELS 3 Xrotation Yrotation Zrotation
												End Site
												{
													OFFSET 0 0 0
												}
											}
										}
									}
								}
							}
						}
					}
				}
			}
		}
	}
}
MOTION
Frames: 6
Frame Time: 0.03333333
7.103531 80.767693 -12.772215 0.000000 0.000000 0.000000 48.701574 6.622227 -7.068464 -87.418895 4.349524 20.233138 39.791897 9.310558 -2.869047 -0.208457 15.487048 -5.569635 -3.608875 1.018989 0.769751 0.000000 0.000000 0.000000 50.416106 4.634256 -5.378181 -36.204613 6.761782 -14.961517 57.689342 5.783118 0.641958 -0.581212 -1.392516 9.930811 -11.356223 1.004316 4.882027 0.000000 0.000000 0.000000 52.412826 0.225842 -2.060788 11.793558 1.196673 -2.352236 12.129595 1.574459 -0.820022 -0.028187 1.573221 1.179789 0.000000 0.000000 0.000000 26.659582 1.302501 -0.899736 -23.648519 -2.615361 4.668497 -18.607812 3.939923 -7.146546 0.000000 0.000000 0.000000 25.705156 2.068230 -0.489563 3.593442 -6.276732 7.111746 8.379136 -11.859284 -5.684953 -23.068832 -48.126309 -28.262235 4.872114 -48.015250 4.906627 0.000000 0.000000 0.000000 24.682191 1.174558 -0.348960 -3.645600 33.134918 14.561832 8.310696 8.989991 0.617691 -52.273371 24.338486 23.699723 -0.218448 32.929715 -0.043042 0.000000 0.000000 0.000000 
6.888555 82.477814 -11.322943 0.000000 0.000000 0.000000 44.910413 4.649617 -5.759076 -80.939381 5.283448 18.980350 37.052800 9.188554 -2.785714 -0.036864 16.492305 -6.626814 -3.244772 1.087320 0.508804 0.000000 0.000000 0.000000 46.377323 2.818314 -4.128560 -40.391741 8.269840 -14.446745 61.804463 5.906512 0.814025 -3.894831 -1.395149 8.737604 -7.018475 1.500000 1.855500 0.000000 0.000000 0.000000 48.331679 -1.131975 -1.724447 12.229437 1.190225 -2.425509 12.184847 1.561759 -0.621548 -0.033039 1.367019 1.189491 0.000000 0.000000 0.000000 26.563982 1.272475 -0.679523 -23.302328 -2.441412 4.646037 -17.711230 4.764909 -6.631733 0.000000 0.000000 0.000000 25.444733 2.024269 -0.295477 3.507781 -5.787282 5.778644 7.497536 -12.142039 -5.084561 -22.343707 -46.962677 -30.448078 4.482466 -47.560168 4.398752 0.000000 0.000000 0.000000 24.455304 1.142546 -0.210303 -4.018828 32.352830 15.704143 8.961038 8.630749 1.389650 -50.520536 23.669445 26.264072 -0.096458 31.832786 -0.442455 0.000000 0.000000 0.000000 
6.616807 83.894379 -9.905596 0.000000 0.000000 0.000000 41.185460 2.643051 -4.476973 -74.589006 5.853954 17.739325 34.679326 9.011645 -2.593737 -0.069722 16.895395 -7.615060 -3.239678 1.103526 0.371921 0.000000 0.000000 0.000000 42.432192 0.830868 -2.798449 -43.557581 9.814367 -14.063268 63.051211 6.007479 0.785855 -5.479002 -0.893851 8.176086 -5.920409 1.432596 0.272560 0.000000 0.000000 0.000000 44.411195 -2.511774 -1.310062 12.483064 1.112440 -2.536944 12.222861 1.587675 -0.410587 -0.076272 1.106657 1.285516 0.000000 0.000000 0.000000 26.417222 1.292230 -0.484468 -22.828760 -2.271380 4.532412 -16.855085 5.504193 -6.198673 0.000000 0.000000 0.000000 25.144284 2.034582 -0.088819 3.378222 -5.344230 4.322801 6.530761 -12.094483 -4.751041 -21.748577 -45.684147 -32.813567 3.879985 -46.207333 3.701614 0.000000 0.000000 0.000000 24.181484 1.164384 -0.071601 -4.194322 31.423535 16.448026 9.431116 8.250809 2.039352 -48.805465 22.682751 28.582054 -0.055698 30.755672 -0.867430 0.000000 0.000000 0.000000 
6.257976 85.045456 -8.491854 0.000000 0.000000 0.000000 37.681652 0.747946 -3.442913 -68.539487 6.205521 16.826642 32.648762 8.835842 -2.370593 -0.276071 16.864934 -8.264323 -3.049394 1.072149 0.332979 0.000000 0.000000 0.000000 38.655988 -1.128525 -1.664824 -45.455541 11.114953 -13.882645 61.219416 5.838032 0.773618 -5.949830 -0.292167 7.510362 -6.091408 1.042498 0.112879 0.000000 0.000000 0.000000 40.770693 -3.888583 -0.910793 12.548031 0.995551 -2.648204 12.231247 1.649824 -0.175767 -0.114980 0.922545 1.400155 0.000000 0.000000 0.000000 26.212465 1.350171 -0.293851 -22.255596 -2.124116 4.365494 -16.008606 6.137590 -5.872166 0.000000 0.000000 0.000000 24.795984 2.082752 0.139131 3.230070 -4.994806 2.886929 5.782272 -11.810237 -4.627192 -21.193237 -44.403435 -35.210086 3.256920 -44.305463 2.976891 0.000000 0.000000 0.000000 23.859468 1.231358 0.089910 -4.176485 30.382693 16.814671 9.592665 7.790618 2.671085 -46.973103 21.392779 30.515984 -0.104372 29.876822 -1.289807 0.000000 0.000000 0.000000 
5.813927 85.981438 -7.042292 0.000000 0.000000 0.000000 34.436687 -1.024289 -2.718094 -62.835056 6.487615 16.292998 30.772263 8.777612 -2.060294 -0.763178 16.708803 -8.508994 -2.374367 1.038783 0.287142 0.000000 0.000000 0.000000 35.147955 -2.896450 -0.946924 -46.179384 11.815070 -14.048707 56.929056 5.292489 0.717181 -5.650182 0.222460 6.737807 -6.681344 0.540859 0.841593 0.000000 0.000000 0.000000 37.415646 -5.101409 -0.593609 12.488444 0.854008 -2.720992 12.201295 1.718319 0.072754 -0.125050 0.723731 1.513343 0.000000 0.000000 0.000000 25.945128 1.414438 -0.098932 -21.654585 -2.024707 4.190081 -15.085542 6.639550 -5.646683 0.000000 0.000000 0.000000 24.383210 2.129343 0.388680 3.089998 -4.817377 1.598932 5.048176 -11.295449 -4.586097 -20.540185 -43.211574 -37.429143 2.770736 -42.270210 2.374046 0.000000 0.000000 0.000000 23.491047 1.313567 0.282371 -3.992420 29.245405 16.871247 9.696112 7.180376 3.347073 -45.125376 19.878402 32.114774 -0.271238 29.282729 -1.681715 0.000000 0.000000 0.000000 
5.274236 86.760399 -5.661436 0.000000 0.000000 0.000000 31.465216 -2.686531 -2.315294 -57.344035 6.846283 16.046930 28.925954 8.794073 -1.588649 -1.499114 16.527857 -8.606828 -1.399430 1.036258 0.225725 0.000000 0.000000 0.000000 31.880113 -4.359331 -0.618408 -46.282007 11.740217 -14.579971 51.335845 4.439965 0.629504 -4.305103 0.429545 6.491107 -7.541673 0.079429 1.831547 0.000000 0.000000 0.000000 34.309201 -6.185259 -0.367707 12.305544 0.690720 -2.755312 12.141283 1.755057 0.305490 -0.056403 0.567034 1.555281 0.000000 0.000000 0.000000 25.631511 1.443573 0.092763 -21.099593 -1.978067 4.053217 -14.021384 7.015976 -5.473668 0.000000 0.000000 0.000000 23.933393 2.130138 0.647522 2.982771 -4.815469 0.610110 4.452873 -10.607490 -4.536100 -19.791878 -42.121927 -39.360615 2.483189 -40.372999 1.946200 0.000000 0.000000 0.000000 23.097760 1.364843 0.497354 -3.690443 28.040570 16.640689 9.821654 6.520741 4.150680 -43.378740 18.324353 33.448741 -0.523022 28.836096 -2.061619 0.000000 0.000000 0.000000 
